<svg width="797" height="150" viewBox="0 0 797 150" fill="none" xmlns="http://www.w3.org/2000/svg">
<path d="M222.027 52.251V58.018C222.027 59.624 220.494 60.719 218.961 60.208C206.624 56.339 200.565 63.712 200.565 70.939C200.565 78.677 203.85 82.838 207.646 84.298C210.274 85.247 216.114 84.955 219.545 84.663C220.859 84.59 222.027 85.685 222.027 86.999V92.328C222.027 93.204 221.516 94.08 220.64 94.445C217.647 95.832 209.982 98.898 202.025 98.898C181.22 98.898 172.752 88.532 172.752 72.326C172.752 56.12 186.841 46.63 202.536 46.63C213.924 46.63 219.107 49.039 221.005 50.353C221.662 50.791 222.027 51.521 222.027 52.251ZM255.139 94.737C255.212 95.978 254.117 97.073 252.876 97.073H230.027C228.786 97.073 227.764 95.978 227.764 94.737V50.791C227.764 49.477 228.786 48.455 230.027 48.455H252.876C254.117 48.455 255.139 49.477 255.139 50.791V94.737ZM278.022 92.766C278.022 94.591 276.562 96.051 274.737 96.051H265.904C264.079 96.051 262.619 94.591 262.619 92.766V50.718C262.619 48.893 264.079 47.433 265.904 47.433H277.657C278.241 47.433 278.752 47.579 279.263 47.871L302.769 61.522C304.375 62.471 306.346 61.303 306.346 59.478V50.718C306.346 48.893 307.806 47.433 309.631 47.433H317.442C319.267 47.433 320.727 48.893 320.727 50.718V92.766C320.727 94.591 319.267 96.051 317.442 96.051H307.368C306.2 96.051 305.032 95.759 304.01 95.102L281.599 81.889C279.993 80.94 278.022 82.035 278.022 83.933V92.766ZM330.544 97C329.303 97.073 328.208 95.978 328.208 94.737V50.791C328.208 49.477 329.303 48.455 330.544 48.455H375.074C376.315 48.455 377.41 49.477 377.41 50.791V56.047C377.41 57.288 376.315 58.383 375.074 58.383H358.43C357.116 58.383 356.094 59.405 356.094 60.719V66.632C356.094 67.873 357.116 68.968 358.43 68.968H370.329C371.643 68.968 372.665 69.99 372.665 71.231V75.538C372.665 76.779 371.643 77.874 370.329 77.874H358.43C357.116 77.874 356.094 78.896 356.094 80.21V84.444C356.094 85.685 357.116 86.78 358.43 86.78H375.074C376.315 86.78 377.41 87.802 377.41 89.116V94.737C377.41 95.978 376.315 97.073 375.074 97.073L330.544 97ZM427.044 60.938C426.022 61.595 424.635 61.595 423.613 60.865C419.89 58.164 415.072 57.142 413.612 60.135C410.108 67.435 436.826 65.683 436.826 83.276C436.826 90.357 431.059 99.701 411.422 99.701C394.705 99.701 385.799 93.277 381.93 89.408C380.616 88.094 380.908 85.831 382.514 84.882L385.58 82.984C386.748 82.327 388.135 82.546 389.084 83.422C392.734 86.707 399.377 88.313 400.472 84.298C402.516 76.925 382.733 79.261 382.733 61.741C382.733 54.149 392.004 46.484 408.21 46.484C419.087 46.484 426.533 50.864 430.402 54.222C431.789 55.536 431.643 57.799 430.037 58.821L427.044 60.938ZM490.532 52.543C494.182 55.609 497.54 60.5 497.54 68.092C497.54 85.101 483.305 85.539 480.677 85.539H472.866C471.844 85.539 471.041 86.415 471.041 87.364V93.861C471.041 95.467 469.727 96.781 468.121 96.781H444.834C443.228 96.781 441.914 95.467 441.914 93.861V50.645C441.914 49.039 443.228 47.725 444.834 47.725H476.662C481.699 47.725 486.663 49.331 490.532 52.543ZM471.041 63.712V73.494C471.041 75.246 472.574 76.633 474.253 76.487C478.633 75.976 481.699 74.297 481.699 68.676C481.699 63.055 478.633 61.23 474.326 60.719C472.574 60.573 471.041 61.96 471.041 63.712ZM542.142 50.791C542.142 49.477 543.237 48.455 544.478 48.455H567.254C568.568 48.455 569.59 49.477 569.59 50.791V94.737C569.59 95.978 568.568 97.073 567.254 97.073H544.478C543.237 97.073 542.142 95.978 542.142 94.737V86.05C542.142 84.736 541.12 83.714 539.806 83.714H532.579C531.338 83.714 530.243 84.736 530.243 86.05V94.737C530.243 95.978 529.221 97.073 527.98 97.073H505.131C503.89 97.073 502.868 95.978 502.868 94.737V50.791C502.868 49.477 503.89 48.455 505.131 48.455H527.98C529.221 48.455 530.243 49.477 530.243 50.791V67.727C530.243 69.041 531.338 70.063 532.579 70.063H539.806C541.12 70.063 542.142 69.041 542.142 67.727V50.791ZM579.486 97C578.245 97.073 577.15 95.978 577.15 94.737V50.791C577.15 49.477 578.245 48.455 579.486 48.455H624.016C625.257 48.455 626.352 49.477 626.352 50.791V56.047C626.352 57.288 625.257 58.383 624.016 58.383H607.372C606.058 58.383 605.036 59.405 605.036 60.719V66.632C605.036 67.873 606.058 68.968 607.372 68.968H619.271C620.585 68.968 621.607 69.99 621.607 71.231V75.538C621.607 76.779 620.585 77.874 619.271 77.874H607.372C606.058 77.874 605.036 78.896 605.036 80.21V84.444C605.036 85.685 606.058 86.78 607.372 86.78H624.016C625.257 86.78 626.352 87.802 626.352 89.116V94.737C626.352 95.978 625.257 97.073 624.016 97.073L579.486 97ZM682.336 81.816C686.424 85.831 687.373 90.576 687.519 93.642C687.592 95.394 686.205 96.781 684.526 96.781H671.167C669.634 96.781 668.393 95.686 668.174 94.226C667.371 89.481 665.4 87.291 663.794 86.342C662.699 85.685 661.312 86.488 661.312 87.729V93.788C661.312 95.467 659.998 96.781 658.319 96.781H635.178C633.499 96.781 632.112 95.467 632.112 93.788V50.718C632.112 49.039 633.499 47.725 635.178 47.725H666.933C671.97 47.725 676.934 49.331 680.803 52.543C684.453 55.609 687.811 60.5 687.811 68.092C687.811 75.1 685.402 79.334 682.336 81.816ZM661.312 62.252V74.954C661.312 75.83 662.115 76.633 662.991 76.56C668.174 76.341 671.97 75.027 671.97 68.676C671.97 62.544 667.225 60.938 663.064 60.646C662.115 60.573 661.312 61.303 661.312 62.252ZM696.4 97C695.159 97.073 694.064 95.978 694.064 94.737V50.791C694.064 49.477 695.159 48.455 696.4 48.455H740.93C742.171 48.455 743.266 49.477 743.266 50.791V56.047C743.266 57.288 742.171 58.383 740.93 58.383H724.286C722.972 58.383 721.95 59.405 721.95 60.719V66.632C721.95 67.873 722.972 68.968 724.286 68.968H736.185C737.499 68.968 738.521 69.99 738.521 71.231V75.538C738.521 76.779 737.499 77.874 736.185 77.874H724.286C722.972 77.874 721.95 78.896 721.95 80.21V84.444C721.95 85.685 722.972 86.78 724.286 86.78H740.93C742.171 86.78 743.266 87.802 743.266 89.116V94.737C743.266 95.978 742.171 97.073 740.93 97.073L696.4 97Z" fill="#FFFFF8"/>
<circle cx="115.5" cy="76.5" r="36.5" fill="#20B74A"/>
<g style="mix-blend-mode:difference">
<circle cx="70.5" cy="76.5" r="36.5" fill="#B70A0A"/>
</g>
</svg>
